<svg id="Layer_1" version="1.1" viewBox="0 0 500 500" x="0px" xml:space="preserve" xmlns:xlink="http://www.w3.org/1999/xlink" xmlns="http://www.w3.org/2000/svg" y="0px">
    <g id="defQonLogo">
        <polygon points="248 104.5 248 64.5 240.9 64.5 224.5 69.1 224.5 78.3 230.4 78.3 230.4 99.7 214.3 115.9 210.1 111.7 201.9 119.9 210.2 134.7 214 138.5 "/>
        <polygon points="252 104.5 252 64.5 259.1 64.5 275.5 69.1 275.5 78.3 269.6 78.3 269.6 99.7 285.7 115.9 289.9 111.7 298.1 119.9 289.8 134.7 286 138.5 "/>
        <polygon points="250 107.7 217.1 140.6 220.8 144.3 235.4 152.5 243.4 144.5 239.3 140.3 250 129.7 260.7 140.3 256.6 144.5 264.6 152.5 279.2 144.3 282.9 140.6 "/>
    </g>
</svg>
