<?xml version="1.0" encoding="utf-8"?>
<!-- Generator: Adobe Illustrator 19.0.0, SVG Export Plug-In . SVG Version: 6.00 Build 0)  -->
<svg version="1.1" id="Layer_4" xmlns="http://www.w3.org/2000/svg" xmlns:xlink="http://www.w3.org/1999/xlink" x="0px" y="0px"
	 viewBox="0 0 124 124" style="enable-background:new 0 0 124 124;" xml:space="preserve">
<path id="XMLID_4_" d="M55.8,3.3C57.9,3.1,59.9,3,62,3s4.1,0.1,6.2,0.3l0.3-3C66.4,0.1,64.2,0,62,0s-4.4,0.1-6.5,0.3L55.8,3.3z"/>
<path id="XMLID_3_" d="M32.5,10.9c1.8-1,3.6-2,5.5-2.8c1.9-0.8,3.8-1.6,5.8-2.2L42.8,3c-2,0.7-4.1,1.4-6.1,2.3S32.9,7.2,31,8.3
	L32.5,10.9z"/>
<path id="XMLID_5_" d="M14.3,27.3c1.2-1.6,2.5-3.3,3.9-4.8c1.4-1.5,2.9-3,4.4-4.4l-2-2.2c-1.6,1.4-3.1,3-4.6,4.6s-2.8,3.3-4.1,5
	L14.3,27.3z"/>
<path id="XMLID_7_" d="M4.3,49.7c0.4-2,1-4,1.6-6s1.4-3.9,2.2-5.8l-2.7-1.2c-0.9,2-1.6,4-2.3,6.1S1.8,47,1.4,49.1L4.3,49.7z"/>
<path id="XMLID_8_" d="M4.3,74.3c-0.4-2-0.7-4-1-6.1C3.1,66.1,3,64,3,62l-3,0c0,2.1,0.1,4.3,0.3,6.5s0.6,4.3,1,6.4L4.3,74.3z"/>
<path id="XMLID_10_" d="M14.3,96.7c-1.2-1.7-2.3-3.4-3.4-5.2s-2-3.6-2.8-5.5l-2.7,1.2c0.9,2,1.9,3.9,2.9,5.8s2.3,3.7,3.5,5.4
	L14.3,96.7z"/>
<path id="XMLID_11_" d="M32.5,113.1c-1.8-1-3.5-2.1-5.2-3.4s-3.3-2.5-4.8-3.9l-2,2.2c1.6,1.4,3.3,2.8,5,4.1c1.8,1.3,3.6,2.5,5.4,3.5
	L32.5,113.1z"/>
<path id="XMLID_12_" d="M55.8,120.7c-2-0.2-4.1-0.5-6.1-1s-4-1-6-1.6l-0.9,2.9c2,0.7,4.1,1.2,6.3,1.7c2.1,0.5,4.3,0.8,6.4,1
	L55.8,120.7z"/>
<path id="XMLID_13_" d="M80.2,118.1c-1.9,0.6-3.9,1.2-6,1.6c-2,0.4-4.1,0.8-6.1,1l0.3,3c2.1-0.2,4.3-0.6,6.4-1s4.2-1,6.3-1.7
	L80.2,118.1z"/>
<path id="XMLID_14_" d="M101.5,105.8c-1.5,1.4-3.1,2.7-4.8,3.9c-1.7,1.2-3.4,2.3-5.2,3.4l1.5,2.6c1.9-1.1,3.7-2.2,5.4-3.5
	c1.8-1.3,3.5-2.7,5-4.1L101.5,105.8z"/>
<path id="XMLID_15_" d="M115.9,86c-0.8,1.9-1.8,3.7-2.8,5.5s-2.2,3.5-3.4,5.2l2.4,1.8c1.3-1.7,2.4-3.5,3.5-5.4s2.1-3.8,2.9-5.8
	L115.9,86z"/>
<path id="XMLID_16_" d="M121,62c0,2-0.1,4.1-0.3,6.2c-0.2,2.1-0.5,4.1-1,6.1l2.9,0.6c0.4-2.1,0.8-4.2,1-6.4c0.2-2.2,0.3-4.3,0.3-6.5
	L121,62z"/>
<path id="XMLID_18_" d="M115.9,38c0.8,1.9,1.6,3.8,2.2,5.8c0.6,2,1.2,4,1.6,6l2.9-0.6c-0.4-2.1-1-4.2-1.7-6.3
	c-0.7-2.1-1.5-4.1-2.3-6.1L115.9,38z"/>
<path id="XMLID_19_" d="M101.5,18.2c1.5,1.4,3,2.8,4.4,4.4c1.4,1.5,2.7,3.2,3.9,4.8l2.4-1.8c-1.3-1.7-2.6-3.4-4.1-5
	c-1.5-1.6-3-3.2-4.6-4.6L101.5,18.2z"/>
<path id="XMLID_20_" d="M80.2,5.9c1.9,0.6,3.9,1.4,5.8,2.2c1.9,0.8,3.7,1.8,5.5,2.8L93,8.3c-1.9-1.1-3.8-2.1-5.8-2.9
	c-2-0.9-4-1.7-6.1-2.3L80.2,5.9z"/>
<path id="XMLID_6_" d="M123.7,68.2c0,0.1,0,0.2,0,0.3l0,0L123.7,68.2z"/>
</svg>
