<svg xmlns="http://www.w3.org/2000/svg" xmlns:xlink="http://www.w3.org/1999/xlink" version="1.1" x="0px" y="0px" viewBox="0 0 1920 1080" xml:space="preserve" enable-background="new 0 0 1920 1080">
  <style type="text/css">

	.st0{fill:#EDBBA2;}
	.st1{fill:#26477D;}

  </style>
  <g id="skin">
    <path id="XMLID_4_" class="st0" d="M692.7 0v221.2c0 0.5 0.4 0.9 0.9 0.9h549.5c0.5 0 0.9-0.4 0.9-0.9V0H692.7z"/>
    <polygon id="XMLID_8_" class="st0" points="317.3 1080 347.4 896.8 0 757.6 0 1080 "/>
    <polygon id="XMLID_10_" class="st0" points="1920 1080 1920 698.1 1580 896.8 1619.1 1080 "/>
  </g>
  <g id="shirt">
    <path id="XMLID_6_" class="st1" d="M377.8 828.7c-0.6-13.5-3-64.5-8.2-119.9 -10-106.2-22.3-146.4-30.9-161.4 -2.7-4.8-1.1-10.9 3.7-13.6 4.8-2.7 10.9-1.1 13.6 3.7 26.2 45.9 37.1 201.9 40.5 266.2 16.6 75.3 27.5 170.8 34.1 276.3h1058.6c6.6-105.5 17.5-201 34.1-276.3 3.4-64.3 14.3-220.3 40.5-266.2 2.7-4.8 8.8-6.5 13.6-3.7 4.8 2.7 6.5 8.8 3.7 13.6 -8.6 15-20.9 55.2-30.9 161.5 -5.2 55.4-7.6 106.3-8.2 119.8 6.1 37.8 14.8 71.8 14.8 71.8S1801.2 843 1920 789.2V535.9c-51.1-166.4-125.4-368.1-182.7-425.4C1683.6 80.5 1518.4 42.8 1385.4 0h-183C1176 109.4 1077.5 190.6 960 190.6S744 109.4 717.6 0h-183C401.6 42.8 236.4 80.5 182.7 110.5 125.4 167.8 51.1 369.5 0 535.9v253.2C118.8 843 362.9 900.5 362.9 900.5S371.7 866.5 377.8 828.7z"/>
  </g>
</svg>
