<?xml version="1.0" encoding="utf-8"?>
<!-- Generator: Adobe Illustrator 19.0.0, SVG Export Plug-In . SVG Version: 6.00 Build 0)  -->
<svg version="1.1" xmlns="http://www.w3.org/2000/svg" xmlns:xlink="http://www.w3.org/1999/xlink" x="0px" y="0px"
	 viewBox="0 0 500 500" style="enable-background:new 0 0 500 500;" xml:space="preserve">
<style type="text/css">
	.st0{display:none;}
	.st1{display:inline;fill:#FFFFFF;}
	.st2{display:inline;fill:#1A1A1A;}
	.st3{display:inline;}
	.st4{fill:#F15C27;}
	.st5{fill:#FFFFFF;}
	.st6{fill:#1A1A1A;}
	.st7{display:inline;fill:#2A479A;}
	.st8{display:inline;fill:#E86124;}
	.st9{display:inline;fill-rule:evenodd;clip-rule:evenodd;fill:#FFFFFF;}
</style>
<g id="Head" class="st0">
	<path id="XMLID_182_" class="st1" d="M386.7,61.8c-48.8-58.2-182.3-103.6-274.7,0C19.5,165.4,92.3,269.2,92.3,269.2
		c-10.3,3.7-30,39.1-17.1,55.3c12.8,16.3,38.5,18.8,38.5,18.8s7.1,69,16.3,88.1C141,454.9,197.5,500,250.6,500
		c53.1,0,98.4-36.8,117.3-65c18.8-28.2,19.7-96.7,19.7-96.7c77-5.1,22.2-69.3,22.2-69.3C454.3,190.2,435.5,120,386.7,61.8z"/>
</g>
<g id="Layer_1" class="st0">
	<path id="XMLID_155_" class="st2" d="M229.2,175.6c-13.3,3.3,6.4,13.3,10.3,24.8C239.5,200.5,241.2,172.6,229.2,175.6z"/>
	<path id="XMLID_154_" class="st2" d="M125.6,158.1c3,12.8,55.6-19.3,100.6,12c0,0-10.7-24.8-49.6-31.7
		C137.6,131.6,122.6,145.3,125.6,158.1z"/>
	<path id="XMLID_153_" class="st2" d="M92,207c-18.8,16,0,36.5,0,36.5C110,222.4,92,207,92,207z"/>
	<path id="XMLID_152_" class="st2" d="M108.5,193.3c-14.5,9.7-6.3,19.4-6.3,19.4C116.2,210.4,108.5,193.3,108.5,193.3z"/>
	<path id="XMLID_151_" class="st2" d="M84.8,192.5c-6.3,6-1.1,16.3-1.1,16.3C92,205.3,84.8,192.5,84.8,192.5z"/>
	<path id="XMLID_150_" class="st2" d="M92.5,199.3c12.8-5.1,3.4-20.3,3.4-20.3C84.8,187.9,92.5,199.3,92.5,199.3z"/>
	<path id="XMLID_149_" class="st2" d="M220.4,286.6c-9.7,20-18.3,14-25.1,17.4c-6.8,3.4-9.1,22,10.3,13.4
		C224.9,308.9,220.4,286.6,220.4,286.6z"/>
	<path id="XMLID_148_" class="st2" d="M222.9,320c0,30.5,20.8,23.4,26.2,12.8c0,0,8,15.1,23.1,4.6c15.1-10.6-2-52.2-21.7-57.3
		C250.6,280,222.9,289.5,222.9,320z"/>
	<path id="XMLID_147_" class="st2" d="M132.9,317.7c16.7,9.4,44.9-2.6,52.6-13.7c0,0-30.4,6.8-47.9-7.3
		C120.1,282.6,116.2,308.3,132.9,317.7z"/>
	<path id="XMLID_146_" class="st2" d="M217.2,316.4c0,0-3.9,6-10.7,7.7C199.7,325.8,216.4,334.8,217.2,316.4z"/>
	<path id="XMLID_145_" class="st2" d="M174.4,78.9c5.7,0,10.3-4.6,10.3-10.3c0-5.7-4.6-10.3-10.3-10.3c-5.7,0-10.3,4.6-10.3,10.3
		C164.2,74.3,168.8,78.9,174.4,78.9z"/>
	<path id="XMLID_144_" class="st2" d="M175.7,83.2c0,0-18.4,23.1,2.1,27.4C198.4,114.9,183.4,88.3,175.7,83.2z"/>
	<path id="XMLID_143_" class="st2" d="M211.7,80.6c9.4-18.4-19.3-3.9-24.8-1.3C186.8,79.4,202.2,99,211.7,80.6z"/>
	<path id="XMLID_142_" class="st2" d="M211.7,53.2c-4.3-20.5-19.7,4.3-21.8,8.6C189.8,61.8,215.9,73.8,211.7,53.2z"/>
	<path id="XMLID_141_" class="st2" d="M176.6,55c0,0,15.4-15,2.1-17.1C165.4,35.7,171.4,51.1,176.6,55z"/>
	<path id="XMLID_140_" class="st2" d="M160.7,61.8c0,0-9-16.7-18-9C133.8,60.5,153.5,66.5,160.7,61.8z"/>
	<path id="XMLID_139_" class="st2" d="M162,76.8c0,0-32.9,0.4-24,12C147,100.3,163.3,94.8,162,76.8z"/>
	<path id="XMLID_138_" class="st2" d="M153.5,126c15.4-5.1,7.3-22.7-12.4-24c-19.7-1.3-21.8-20.1-21.8-20.1
		C116.2,104.6,138.1,131.1,153.5,126z"/>
	<path id="XMLID_137_" class="st2" d="M117.5,127.7c9-19.3-6.8-38.9-6.8-38.9C97.4,110.2,117.5,127.7,117.5,127.7z"/>
	<path id="XMLID_136_" class="st2" d="M99.1,103.7c-10.7,11.6-1.3,22.3-1.3,22.3C104.2,117.4,99.1,103.7,99.1,103.7z"/>
	<path id="XMLID_135_" class="st2" d="M205.7,39.6c0,0,18.8-5.1,12.8-23.5c0,0-12.8,3-16.7,18.8l10.3-4.7L205.7,39.6z"/>
	<path id="XMLID_134_" class="st2" d="M170.1,332.3c0,0-11.1,20.1,15,32.5c26.1,12.4,35.1-12,58.6-4.7c0,0-5.1-19.7-19.7-11.6
		C209.5,356.6,169.3,357.5,170.1,332.3z"/>
	<path id="XMLID_133_" class="st2" d="M220.2,346.4c-17.1,6.4-37.7-1.3-37.7-1.3C202.2,358.4,220.2,346.4,220.2,346.4z"/>
	<path id="XMLID_132_" class="st2" d="M211.7,472.6c-9.4,8.1,15.8,20.1,27.4,6.4C239,479,221.1,464.5,211.7,472.6z"/>
	<path id="XMLID_131_" class="st2" d="M203.1,458.5c-12.4,4.7-25.3-4.7-15.4-13.3c9.8-8.6,15.4,2.1,9.4,5.1c-6,3,10.3,9.4,11.1-0.9
		c0.9-10.3-7.3-13.7-19.3-9.4c-12,4.3-12.8,21,0.9,23.1c13.7,2.1,18.4-6,32.1,2.6C221.9,465.8,215.5,453.8,203.1,458.5z"/>
	<path id="XMLID_130_" class="st2" d="M151.7,428.1c-17.5,0,8.6,25.7,21,28.7C172.7,456.8,169.3,428.1,151.7,428.1z"/>
	<path id="XMLID_129_" class="st2" d="M144.5,365.2c6.8,6.4,23.5-3.4,8.1-22.7c-15.4-19.3-36.8-9-36.8-9
		C139.8,338.2,137.6,358.8,144.5,365.2z"/>
	<path id="XMLID_128_" class="st2" d="M127.4,125.6c-2.4,0-4.3,1.9-4.3,4.3c0,2.4,1.9,4.3,4.3,4.3c2.4,0,4.3-1.9,4.3-4.3
		C131.6,127.5,129.7,125.6,127.4,125.6z"/>
	<circle id="XMLID_127_" class="st2" cx="116.7" cy="144.8" r="4.7"/>
	<path id="XMLID_126_" class="st2" d="M120.1,172.6c2.8,0,5.1-2.3,5.1-5.1c0-2.8-2.3-5.1-5.1-5.1c-2.8,0-5.1,2.3-5.1,5.1
		C114.9,170.3,117.2,172.6,120.1,172.6z"/>
	<path id="XMLID_125_" class="st2" d="M132.9,168.8c-1.9,0-3.4,1.5-3.4,3.4c0,1.9,1.5,3.4,3.4,3.4c1.9,0,3.4-1.5,3.4-3.4
		C136.3,170.3,134.8,168.8,132.9,168.8z"/>
	<circle id="XMLID_124_" class="st2" cx="195.4" cy="26.3" r="2.1"/>
	<path id="XMLID_123_" class="st2" d="M193.7,40.8c1.7,0,3-1.3,3-3c0-1.7-1.3-3-3-3c-1.7,0-3,1.3-3,3
		C190.7,39.5,192,40.8,193.7,40.8z"/>
	<circle id="XMLID_122_" class="st2" cx="213.8" cy="43" r="3"/>
	<circle id="XMLID_121_" class="st2" cx="214.7" cy="284.8" r="1.7"/>
	<circle id="XMLID_120_" class="st2" cx="206.1" cy="292.9" r="2.6"/>
	<path id="XMLID_119_" class="st2" d="M196.7,298.5c0-1.9-1.5-3.4-3.4-3.4c-1.9,0-3.4,1.5-3.4,3.4c0,1.9,1.5,3.4,3.4,3.4
		C195.1,301.9,196.7,300.3,196.7,298.5z"/>
	<path id="XMLID_118_" class="st2" d="M117.1,293.3c4.5,0,8.1-3.6,8.1-8.1c0-4.5-3.6-8.1-8.1-8.1c-4.5,0-8.1,3.6-8.1,8.1
		C109,289.7,112.6,293.3,117.1,293.3z"/>
	<path id="XMLID_117_" class="st2" d="M110.2,274.5c2.8,0,5.1-2.3,5.1-5.1c0-2.8-2.3-5.1-5.1-5.1c-2.8,0-5.1,2.3-5.1,5.1
		C105.1,272.2,107.4,274.5,110.2,274.5z"/>
	<path id="XMLID_116_" class="st2" d="M106,258.7c1.7,0,3-1.3,3-3c0-1.7-1.3-3-3-3c-1.7,0-3,1.3-3,3
		C103,257.3,104.3,258.7,106,258.7z"/>
	<path id="XMLID_115_" class="st2" d="M175.7,437.1c-1.4,0-2.6,1.2-2.6,2.6c0,1.4,1.1,2.6,2.6,2.6c1.4,0,2.6-1.1,2.6-2.6
		C178.3,438.2,177.1,437.1,175.7,437.1z"/>
	<path id="XMLID_114_" class="st2" d="M180,434.1c0,1.9,1.5,3.4,3.4,3.4c1.9,0,3.4-1.5,3.4-3.4c0-1.9-1.5-3.4-3.4-3.4
		C181.5,430.7,180,432.2,180,434.1z"/>
	<path id="XMLID_113_" class="st2" d="M191.1,432c0,2.6,2.1,4.7,4.7,4.7c2.6,0,4.7-2.1,4.7-4.7c0-2.6-2.1-4.7-4.7-4.7
		C193.2,427.3,191.1,429.4,191.1,432z"/>
	<path id="XMLID_112_" class="st2" d="M93.5,298.5c-3.9,15,6,14.1,6,14.1c-6.4-5.6-1.3-17.1,8.1-10.7c9.4,6.4-3.3,28.3-17.1,12.4
		c-11.1-12.8,0-27,0-27c-16.3,11.5-9.4,29.9-1.7,35.9c7.7,6,27,4.7,28.2-12.4C118.4,293.7,97.4,283.5,93.5,298.5z"/>
	<path id="XMLID_111_" class="st2" d="M107.7,307c0-2.4-1.9-4.3-4.3-4.3c-2.4,0-4.3,1.9-4.3,4.3c0,2.4,1.9,4.3,4.3,4.3
		C105.8,311.3,107.7,309.4,107.7,307z"/>
	<path id="XMLID_110_" class="st2" d="M231.8,284.8c14.6-5.6,11.1-37.2,11.1-37.2C240.3,263.8,217.2,290.3,231.8,284.8z"/>
	<path id="XMLID_109_" class="st2" d="M171.9,119.1c0,2.1,1.7,3.8,3.8,3.8c2.1,0,3.9-1.7,3.9-3.8c0-2.1-1.7-3.9-3.9-3.9
		C173.6,115.3,171.9,117,171.9,119.1z"/>
	<path id="XMLID_108_" class="st2" d="M201,106.7c1.9,0,3.4-1.5,3.4-3.4c0-1.9-1.5-3.4-3.4-3.4c-1.9,0-3.4,1.5-3.4,3.4
		C197.5,105.2,199.1,106.7,201,106.7z"/>
	<path id="XMLID_107_" class="st2" d="M141,429.4c9-13.7-2.1-30-2.1-30C129.1,419.1,141,429.4,141,429.4z"/>
	<path id="XMLID_106_" class="st2" d="M147.5,380.6c-8.1,15,0,23.5,0,23.5C157.7,389.2,147.5,380.6,147.5,380.6z"/>
	<path id="XMLID_105_" class="st2" d="M136.8,383.6c9.8-11.6-3-24.4-3-24.4C124.8,375.5,136.8,383.6,136.8,383.6z"/>
	<path id="XMLID_96_" class="st2" d="M323,168.2c-4.1,0.1-8.2,0.6-12.2,1.5l0.7,2.9c3.8-0.8,7.7-1.3,11.6-1.4L323,168.2z"/>
	<path id="XMLID_87_" class="st2" d="M271,175.6c-12-3-10.3,24.8-10.3,24.8C264.5,188.9,284.3,179,271,175.6z"/>
	<path id="XMLID_86_" class="st2" d="M274,170.1c44.9-31.2,97.6,0.9,100.6-12c3-12.8-12-26.5-50.9-19.7
		C284.7,145.3,274,170.1,274,170.1z"/>
	<path id="XMLID_85_" class="st2" d="M408.2,207c0,0-18,15.4,0,36.5C408.2,243.5,427,223,408.2,207z"/>
	<path id="XMLID_84_" class="st2" d="M391.6,193.3c0,0-7.7,17.1,6.3,19.4C397.9,212.7,406.2,203,391.6,193.3z"/>
	<path id="XMLID_83_" class="st2" d="M416.5,208.7c0,0,5.1-10.3-1.1-16.3C415.3,192.5,408.2,205.3,416.5,208.7z"/>
	<path id="XMLID_82_" class="st2" d="M407.6,199.3c0,0,7.7-11.4-3.4-20.3C404.2,179.1,394.8,194.2,407.6,199.3z"/>
	<path id="XMLID_81_" class="st2" d="M294.6,317.4c19.4,8.6,17.1-10,10.3-13.4c-6.8-3.4-15.4,2.6-25.1-17.4
		C279.8,286.6,275.2,308.9,294.6,317.4z"/>
	<path id="XMLID_80_" class="st2" d="M367.2,317.7c16.7-9.4,12.8-35.1-4.7-21c-17.5,14.1-47.9,7.3-47.9,7.3
		C322.3,315.1,350.6,327.1,367.2,317.7z"/>
	<path id="XMLID_79_" class="st2" d="M282.9,316.4c0.9,18.4,17.5,9.4,10.7,7.7C286.8,322.4,282.9,316.4,282.9,316.4z"/>
	<path id="XMLID_78_" class="st2" d="M325.7,78.9c5.7,0,10.3-4.6,10.3-10.3c0-5.7-4.6-10.3-10.3-10.3c-5.7,0-10.3,4.6-10.3,10.3
		C315.5,74.3,320.1,78.9,325.7,78.9z"/>
	<path id="XMLID_77_" class="st2" d="M324.5,83.2c-7.7,5.1-22.7,31.7-2.1,27.4C342.9,106.3,324.5,83.2,324.5,83.2z"/>
	<path id="XMLID_76_" class="st2" d="M288.5,80.6c9.4,18.4,24.8-1.3,24.8-1.3C307.8,76.8,279.1,62.2,288.5,80.6z"/>
	<path id="XMLID_75_" class="st2" d="M288.5,53.2c-4.3,20.5,21.8,8.6,21.8,8.6C308.2,57.5,292.8,32.7,288.5,53.2z"/>
	<path id="XMLID_74_" class="st2" d="M323.6,55c5.1-3.9,11.1-19.3-2.1-17.1C308.2,40,323.6,55,323.6,55z"/>
	<path id="XMLID_73_" class="st2" d="M357.4,52.8c-9-7.7-18,9-18,9C346.7,66.5,366.4,60.5,357.4,52.8z"/>
	<path id="XMLID_72_" class="st2" d="M362.1,88.8c9-11.6-24-12-24-12C336.9,94.8,353.1,100.3,362.1,88.8z"/>
	<path id="XMLID_71_" class="st2" d="M346.7,126c15.4,5.1,37.2-21.4,34.2-44.1c0,0-2.1,18.8-21.8,20.1
		C339.4,103.3,331.3,120.9,346.7,126z"/>
	<path id="XMLID_70_" class="st2" d="M382.6,127.7c0,0,20.1-17.5,6.8-38.9C389.5,88.8,373.7,108.5,382.6,127.7z"/>
	<path id="XMLID_69_" class="st2" d="M401.1,103.7c0,0-5.1,13.7,1.3,22.3C402.3,126,411.7,115.3,401.1,103.7z"/>
	<path id="XMLID_68_" class="st2" d="M294.5,39.6l-6.4-9.4l10.3,4.7C294.5,19,281.7,16,281.7,16C275.7,34.4,294.5,39.6,294.5,39.6z"
		/>
	<path id="XMLID_67_" class="st2" d="M256.4,360.1c23.5-7.3,32.5,17.1,58.6,4.7c26.1-12.4,15-32.5,15-32.5
		c0.9,25.2-39.4,24.4-53.9,16.3C261.5,340.4,256.4,360.1,256.4,360.1z"/>
	<path id="XMLID_66_" class="st2" d="M279.9,346.4c0,0,18,12,37.7-1.3C317.6,345.1,297.1,352.8,279.9,346.4z"/>
	<path id="XMLID_65_" class="st2" d="M250.1,464.2c-1.2-8.1-5.5-21.6-20-18.6c-20.3,4.2,1.7,31.1,20,24.6
		c18.3,6.6,40.4-20.3,20-24.6C255.6,442.6,251.3,456.1,250.1,464.2z"/>
	<path id="XMLID_64_" class="st2" d="M288.5,472.6c-9.4-8.1-27.4,6.4-27.4,6.4C272.7,492.7,297.9,480.7,288.5,472.6z"/>
	<path id="XMLID_63_" class="st2" d="M311.2,440.1c-12-4.3-20.1-0.9-19.3,9.4c0.9,10.3,17.1,3.8,11.1,0.9c-6-3-0.4-13.7,9.4-5.1
		c9.8,8.6-3,18-15.4,13.3c-12.4-4.7-18.8,7.3-18.8,7.3c13.7-8.6,18.4-0.4,32.1-2.6C324,461.1,323.2,444.4,311.2,440.1z"/>
	<path id="XMLID_62_" class="st2" d="M348.4,428.1c-17.5,0-21,28.7-21,28.7C339.9,453.8,366,428.1,348.4,428.1z"/>
	<path id="XMLID_61_" class="st2" d="M347.6,342.5c-15.4,19.3,1.3,29.1,8.1,22.7c6.9-6.4,4.7-27,28.7-31.7
		C384.4,333.5,363,323.3,347.6,342.5z"/>
	<path id="XMLID_60_" class="st2" d="M372.8,125.6c-2.4,0-4.3,1.9-4.3,4.3c0,2.4,1.9,4.3,4.3,4.3c2.4,0,4.3-1.9,4.3-4.3
		C377.1,127.5,375.2,125.6,372.8,125.6z"/>
	<path id="XMLID_59_" class="st2" d="M383.5,149.5c2.6,0,4.7-2.1,4.7-4.7c0-2.6-2.1-4.7-4.7-4.7c-2.6,0-4.7,2.1-4.7,4.7
		C378.8,147.4,380.9,149.5,383.5,149.5z"/>
	<path id="XMLID_58_" class="st2" d="M374.9,167.5c0,2.8,2.3,5.1,5.1,5.1c2.8,0,5.1-2.3,5.1-5.1c0-2.8-2.3-5.1-5.1-5.1
		C377.2,162.4,374.9,164.7,374.9,167.5z"/>
	<circle id="XMLID_57_" class="st2" cx="367.2" cy="172.2" r="3.4"/>
	<path id="XMLID_56_" class="st2" d="M304.8,28.4c1.2,0,2.1-1,2.1-2.1c0-1.2-1-2.1-2.1-2.1c-1.2,0-2.1,1-2.1,2.1
		C302.6,27.5,303.6,28.4,304.8,28.4z"/>
	<path id="XMLID_55_" class="st2" d="M303.5,37.8c0,1.7,1.3,3,3,3c1.7,0,3-1.3,3-3c0-1.7-1.3-3-3-3
		C304.8,34.8,303.5,36.2,303.5,37.8z"/>
	<path id="XMLID_54_" class="st2" d="M289.4,43c0-1.7-1.3-3-3-3c-1.6,0-3,1.3-3,3c0,1.7,1.3,3,3,3C288,46,289.4,44.6,289.4,43z"/>
	<path id="XMLID_53_" class="st2" d="M283.8,284.8c0,0.9,0.8,1.7,1.7,1.7c0.9,0,1.7-0.8,1.7-1.7c0-0.9-0.8-1.7-1.7-1.7
		C284.6,283,283.8,283.8,283.8,284.8z"/>
	<circle id="XMLID_52_" class="st2" cx="294.1" cy="292.9" r="2.6"/>
	<path id="XMLID_51_" class="st2" d="M310.3,298.5c0-1.9-1.5-3.4-3.4-3.4c-1.9,0-3.4,1.5-3.4,3.4c0,1.9,1.5,3.4,3.4,3.4
		C308.8,301.9,310.3,300.3,310.3,298.5z"/>
	<path id="XMLID_50_" class="st2" d="M391.2,285.2c0-4.5-3.6-8.1-8.1-8.1c-4.5,0-8.1,3.6-8.1,8.1c0,4.5,3.6,8.1,8.1,8.1
		C387.6,293.3,391.2,289.7,391.2,285.2z"/>
	<circle id="XMLID_49_" class="st2" cx="389.9" cy="269.4" r="5.1"/>
	<path id="XMLID_48_" class="st2" d="M397.2,255.7c0-1.7-1.3-3-3-3c-1.6,0-3,1.3-3,3c0,1.7,1.3,3,3,3
		C395.9,258.7,397.2,257.3,397.2,255.7z"/>
	<path id="XMLID_47_" class="st2" d="M324.5,437.1c-1.4,0-2.6,1.2-2.6,2.6c0,1.4,1.1,2.6,2.6,2.6c1.4,0,2.6-1.1,2.6-2.6
		C327,438.2,325.9,437.1,324.5,437.1z"/>
	<path id="XMLID_46_" class="st2" d="M316.7,430.7c-1.9,0-3.4,1.5-3.4,3.4c0,1.9,1.5,3.4,3.4,3.4c1.9,0,3.4-1.5,3.4-3.4
		C320.2,432.2,318.6,430.7,316.7,430.7z"/>
	<path id="XMLID_45_" class="st2" d="M299.6,432c0,2.6,2.1,4.7,4.7,4.7c2.6,0,4.7-2.1,4.7-4.7c0-2.6-2.1-4.7-4.7-4.7
		C301.7,427.3,299.6,429.4,299.6,432z"/>
	<path id="XMLID_44_" class="st2" d="M409.6,314.3c-13.8,15.9-26.5-6-17.1-12.4c9.4-6.4,14.5,5.1,8.1,10.7c0,0,9.8,0.9,6-14.1
		c-3.9-15-24.8-4.7-23.5,12.4c1.3,17.1,20.5,18.4,28.2,12.4c7.7-6,14.5-24.4-1.7-35.9C409.6,287.3,420.7,301.4,409.6,314.3z"/>
	<path id="XMLID_43_" class="st2" d="M396.8,302.7c-2.4,0-4.3,1.9-4.3,4.3c0,2.4,1.9,4.3,4.3,4.3c2.4,0,4.3-1.9,4.3-4.3
		C401.1,304.6,399.1,302.7,396.8,302.7z"/>
	<path id="XMLID_42_" class="st2" d="M268.4,284.8c14.6,5.6-8.6-21-11.1-37.2C257.3,247.5,253.8,279.2,268.4,284.8z"/>
	<path id="XMLID_41_" class="st2" d="M320.6,119.1c0,2.1,1.7,3.8,3.9,3.8c2.1,0,3.9-1.7,3.9-3.8c0-2.1-1.7-3.9-3.9-3.9
		C322.3,115.3,320.6,117,320.6,119.1z"/>
	<path id="XMLID_40_" class="st2" d="M299.2,99.9c-1.9,0-3.4,1.5-3.4,3.4c0,1.9,1.5,3.4,3.4,3.4c1.9,0,3.4-1.5,3.4-3.4
		C302.6,101.4,301.1,99.9,299.2,99.9z"/>
	<path id="XMLID_39_" class="st2" d="M359.1,429.4c0,0,12-10.3,2.1-30C361.2,399.4,350.1,415.7,359.1,429.4z"/>
	<path id="XMLID_38_" class="st2" d="M352.7,380.6c0,0-10.3,8.6,0,23.5C352.7,404.1,360.8,395.6,352.7,380.6z"/>
	<path id="XMLID_37_" class="st2" d="M363.4,383.6c0,0,12-8.1,3-24.4C366.4,359.2,353.6,372.1,363.4,383.6z"/>
	<path id="XMLID_36_" class="st2" d="M114.9,182.4c0,0-11.2-5.4-10.7-27.3c0.5-22-11.7-18.5-15.1-3.9
		C85.6,165.8,105.2,183.4,114.9,182.4z"/>
	<path id="XMLID_35_" class="st2" d="M78.6,172.9c-4.9,7.3,8.3,4.9,13.2,1C91.7,173.8,83.4,165.6,78.6,172.9z"/>
	<path id="XMLID_34_" class="st2" d="M384.1,181.7c9.8,1,29.3-16.6,25.8-31.2c-3.4-14.6-15.6-18.1-15.1,3.9
		C395.4,176.3,384.1,181.7,384.1,181.7z"/>
	<path id="XMLID_33_" class="st2" d="M420.5,172.1c-4.9-7.3-13.2,1-13.2,1C412.2,177,425.4,179.5,420.5,172.1z"/>
	<path id="XMLID_32_" class="st2" d="M249,476.3c-9.4,0.6-12.9,15.3,0,15.3C263.1,491.5,258.4,475.7,249,476.3z"/>
	<path id="XMLID_31_" class="st2" d="M159.8,336.1c2.7,0,4.9-2.2,4.9-4.9c0-2.7-2.2-4.9-4.9-4.9c-2.7,0-4.9,2.2-4.9,4.9
		C154.9,333.9,157.1,336.1,159.8,336.1z"/>
	<path id="XMLID_30_" class="st2" d="M344.2,331.2c0-2.7-2.2-4.9-4.9-4.9c-2.7,0-4.9,2.2-4.9,4.9c0,2.7,2.2,4.9,4.9,4.9
		C342,336.1,344.2,333.9,344.2,331.2z"/>
</g>
<g id="PartyLogo_x27_s" class="st0">
	<g id="XMLID_205_" class="st3">
		<polygon id="XMLID_5_" class="st4" points="248,104.5 248,64.5 240.9,64.5 224.5,69.1 224.5,78.3 230.4,78.3 230.4,99.7 
			214.3,115.9 210.1,111.7 201.9,119.9 210.2,134.7 214,138.5 		"/>
		<polygon id="XMLID_4_" class="st4" points="252,104.5 252,64.5 259.1,64.5 275.5,69.1 275.5,78.3 269.6,78.3 269.6,99.7 
			285.7,115.9 289.9,111.7 298.1,119.9 289.8,134.7 286,138.5 		"/>
		<polygon id="XMLID_3_" class="st4" points="250,107.7 217.1,140.6 220.8,144.3 235.4,152.5 243.4,144.5 239.3,140.3 250,129.7 
			260.7,140.3 256.6,144.5 264.6,152.5 279.2,144.3 282.9,140.6 		"/>
	</g>
</g>
<g id="Teeth">
	<path id="XMLID_189_" class="st5" d="M180.7,401.4c0,0.4,0,0.9,0,1.4c0.5,6.1,2,13.2,4.8,15.8c0.7,0.7,1.4,0.9,2.4,0.9
		c5.4-0.4,6.8-9.9,7.1-15.6C189.8,403.2,185,402.3,180.7,401.4z"/>
	<path id="XMLID_188_" class="st5" d="M218.7,406.7c-5.6-0.4-11-1-16.2-1.7c0.4,7.8,2,17.8,5.7,21c0.9,0.7,1.7,0.9,2.9,0.7
		c5.1-0.9,7-6.9,7.7-12.6C218.6,411.3,218.6,408.7,218.7,406.7z"/>
	<path id="XMLID_187_" class="st5" d="M173,389.2c-0.3-5.2-1.7-10.7-4.6-11c-0.1,0-0.2,0-0.3,0c-3,0-4.8,6.5-5.4,11.5
		c2.3,0.6,5.8,1.5,10.2,2.4C172.9,391.3,172.9,390.3,173,389.2z"/>
	<path id="XMLID_186_" class="st5" d="M180.5,393.7c4.3,0.9,9.2,1.8,14.3,2.6c0-1.7,0-4.1,0.2-6.6c-0.6-8.8-3.3-13.2-7.8-13.2h-0.2
		c-5.1,0.1-6.3,7.9-6.6,12.7C180.6,391.1,180.5,392.7,180.5,393.7z"/>
	<path id="XMLID_185_" class="st5" d="M162.1,397.2c-0.2,4.3,0.2,10.3,2.5,13.4c0.8,1.1,1.8,1.7,3.2,1.8c1.7,0.2,2.5-0.3,3-0.8
		c1.7-1.7,2.3-5.3,2.4-8.6c-0.1-1.2-0.1-2.2-0.2-3.1C168.4,398.8,164.7,397.9,162.1,397.2z"/>
	<path id="XMLID_184_" class="st5" d="M273.5,407.2c-2.9,0.1-5.9,0.2-8.8,0.2c-3.7,0-7.2-0.1-10.7-0.3c0.1,2.2,0.1,4.9-0.2,7.9
		c0.8,6.8,3.3,14.3,10.4,15.8c2.6,0.5,3.9-0.3,4.8-1.1c3-2.6,4.3-9,4.8-15.4C273.6,411.6,273.5,409.2,273.5,407.2z"/>
	<path id="XMLID_183_" class="st5" d="M319.5,401.4c-4.3,0.9-9.1,1.7-14.2,2.5c0.2,5.9,1.7,15.2,7.1,15.6c0.9,0.1,1.6-0.2,2.4-0.9
		c2.8-2.7,4.3-9.8,4.8-15.8C319.5,402.3,319.5,401.9,319.5,401.4z"/>
	<path id="XMLID_181_" class="st5" d="M281.5,406.7c0.1,2,0.1,4.6-0.1,7.4c0.7,5.6,2.6,11.6,7.7,12.6c1.2,0.2,2,0,2.9-0.7
		c3.7-3.1,5.3-13.1,5.7-21C292.5,405.7,287,406.3,281.5,406.7z"/>
	<path id="XMLID_180_" class="st5" d="M246.1,407c-3.4,0.2-7,0.3-10.7,0.3c0,0,0,0,0,0c-2.9,0-5.9-0.1-8.8-0.2c0,2,0,4.4-0.3,7
		c0.5,6.4,1.8,12.8,4.8,15.4c0.9,0.8,2.2,1.6,4.8,1.1c7.2-1.4,9.7-8.9,10.4-15.7C246,412,246,409.2,246.1,407z"/>
	<path id="XMLID_179_" class="st5" d="M305.3,396.3c5.2-0.8,10-1.7,14.3-2.6c0-1.1,0-2.7,0.1-4.5c-0.3-4.8-1.6-12.6-6.6-12.7h-0.2
		c-4.6,0-7.2,4.4-7.8,13.2C305.3,392.3,305.3,394.6,305.3,396.3z"/>
	<path id="XMLID_178_" class="st5" d="M337.4,389.7c-0.6-5-2.4-11.5-5.4-11.5c-0.1,0-0.2,0-0.3,0c-2.9,0.3-4.2,5.8-4.6,11
		c0.1,1.1,0.1,2.1,0.1,2.9C331.7,391.1,335.2,390.2,337.4,389.7z"/>
	<path id="XMLID_177_" class="st5" d="M327.2,399.8c0,0.9-0.1,1.9-0.2,3c0.1,3.4,0.7,7.1,2.4,8.7c0.5,0.5,1.3,1,3,0.8
		c1.3-0.2,2.3-0.7,3.2-1.8c2.3-3,2.7-9,2.5-13.4C335.4,397.9,331.7,398.8,327.2,399.8z"/>
	<path id="XMLID_176_" class="st5" d="M281.5,399.2c5.5-0.4,10.9-1,16.1-1.7c-0.1-1.8-0.2-4.6,0-7.7c-0.5-5.1-2.1-13.4-7.1-13.4
		c-0.3,0-0.5,0-0.8,0.1c-6,0.7-7.8,9.8-8.3,15.4C281.6,394.7,281.6,397.2,281.5,399.2z"/>
	<path id="XMLID_175_" class="st5" d="M226.5,399.7c3,0.1,5.9,0.2,8.9,0.2h0c3.7,0,7.2-0.1,10.6-0.3c-0.2-3.2-0.4-8,0.3-12.8
		c-0.6-3.8-1.7-7.4-3.7-9.7c-1.5-1.7-3.3-2.5-5.7-2.5c-7.6,0-10,9.4-10.6,17.3C226.6,394.9,226.6,397.6,226.5,399.7z"/>
	<path id="XMLID_174_" class="st5" d="M254.1,399.5c6.1,0.4,12.9,0.4,19.5,0.1c-0.1-2.1,0-4.8,0.2-7.8c-0.6-8-3-17.3-10.6-17.3
		c-2.4,0-4.2,0.8-5.7,2.5c-2,2.3-3.1,5.9-3.7,9.7C254.5,391.6,254.4,396.3,254.1,399.5z"/>
	<path id="XMLID_173_" class="st5" d="M218.7,399.2c-0.1-2-0.1-4.5,0.1-7.3c-0.5-5.6-2.3-14.7-8.3-15.4c-0.3,0-0.5-0.1-0.8-0.1
		c-5,0-6.6,8.2-7.1,13.4c0.2,3.1,0.1,5.9,0,7.7C207.7,398.2,213.1,398.8,218.7,399.2z"/>
	<path id="XMLID_216_" class="st6" d="M333.3,419.8c3.3-0.4,6.2-2,8.2-4.7c5.6-7.3,3.9-20.7,3.6-23c-0.1-3-1.3-21.4-13.1-21.4
		c-0.3,0-0.6,0-1,0c-2.1,0.2-5.1,1.1-7.5,4.4c-3.1-5-7.4-6.1-10.4-6.2l-0.4,0c-3.3,0-8.2,1.1-11.6,6.6c-3.2-5.6-7.8-6.7-10.8-6.7
		c-0.5,0-1.1,0-1.7,0.1c-3.6,0.4-7.8,2.3-10.9,7.7c-4-8.2-10.3-9.8-14.6-9.8c-4.6,0-8.5,1.8-11.4,5.1c-0.7,0.8-1.3,1.6-1.8,2.5
		c-0.5-0.9-1.1-1.7-1.8-2.5c-2.9-3.3-6.8-5.1-11.4-5.1c-4.2,0-10.6,1.6-14.6,9.8c-3.1-5.4-7.3-7.3-10.9-7.7
		c-0.6-0.1-1.1-0.1-1.7-0.1c-3.1,0-7.6,1.1-10.8,6.7c-3.4-5.5-8.3-6.6-11.6-6.6l-0.4,0c-3,0.1-7.3,1.2-10.4,6.2
		c-2.4-3.3-5.3-4.2-7.5-4.4c-0.3,0-0.6,0-0.9,0c-11.8,0-13,18.4-13.1,21.4c-0.3,2.3-2,15.7,3.6,23c2.1,2.7,4.9,4.3,8.2,4.7
		c4.5,0.5,7.4-1.2,9.1-2.9c1.1,2.8,2.5,5.3,4.4,7.1c2.3,2.1,5,3.1,8,2.9c4.1-0.3,7.1-2.4,9.2-5.3c1.3,4.1,3.1,7.7,5.8,10
		c2.6,2.2,5.7,3,9.1,2.4c4.1-0.8,7-2.9,9.1-5.8c1.1,2.7,2.5,5.1,4.5,6.9c2.3,2.1,5.1,3.1,8.3,3.1c1,0,2-0.1,3-0.3
		c6.3-1.3,10.2-5,12.7-9.6c2.5,4.6,6.5,8.3,12.7,9.6c1,0.2,2,0.3,3,0.3c3.1,0,6-1.1,8.3-3.1c2-1.8,3.4-4.2,4.5-6.9
		c2.1,2.8,5,5,9.1,5.8c3.4,0.6,6.5-0.2,9.1-2.4c2.7-2.3,4.5-6,5.8-10c2.1,3,5.1,5,9.2,5.3c3,0.2,5.8-0.8,8.1-2.9
		c1.9-1.8,3.3-4.3,4.4-7.1C326.6,419.3,329.7,420.3,333.3,419.8z M335.6,410.6c-0.8,1.1-1.8,1.7-3.2,1.8c-1.7,0.2-2.5-0.3-3-0.8
		c-1.7-1.7-2.3-5.4-2.4-8.7c0.1-1.1,0.1-2.2,0.2-3c4.6-1,8.3-1.9,10.9-2.6C338.3,401.6,337.9,407.5,335.6,410.6z M331.8,378.2
		c0.1,0,0.2,0,0.3,0c3,0,4.8,6.5,5.4,11.5c-2.3,0.6-5.8,1.5-10.2,2.5c0-0.8,0-1.8-0.1-2.9C327.5,384,328.9,378.5,331.8,378.2z
		 M312.9,376.5h0.2c5,0.1,6.3,7.9,6.6,12.7c-0.1,1.9-0.1,3.5-0.1,4.5c-4.3,0.9-9.2,1.8-14.3,2.6c0-1.7,0-4.1-0.2-6.6
		C305.7,380.9,308.3,376.5,312.9,376.5z M289.7,376.5c0.3,0,0.5-0.1,0.8-0.1c5,0,6.6,8.2,7.1,13.4c-0.2,3.1-0.1,5.9,0,7.7
		c-5.2,0.7-10.6,1.3-16.1,1.7c0.1-2,0.1-4.5-0.1-7.3C281.9,386.3,283.7,377.2,289.7,376.5z M257.5,377c1.5-1.7,3.3-2.5,5.7-2.5
		c7.6,0,10,9.4,10.6,17.3c-0.3,3-0.3,5.8-0.2,7.8c-6.6,0.3-13.3,0.3-19.5-0.1c0.2-3.2,0.4-8-0.3-12.8
		C254.4,382.9,255.5,379.3,257.5,377z M236.9,374.5c2.4,0,4.2,0.8,5.7,2.5c2,2.3,3.1,5.9,3.7,9.7c-0.6,4.9-0.5,9.6-0.3,12.8
		c-3.4,0.2-6.9,0.3-10.6,0.3h0c-3,0-5.9-0.1-8.9-0.2c0-2.1,0-4.8-0.2-7.8C226.9,383.9,229.3,374.5,236.9,374.5z M202.6,389.8
		c0.5-5.1,2.1-13.4,7.1-13.4c0.3,0,0.5,0,0.8,0.1c6,0.7,7.8,9.8,8.3,15.4c-0.2,2.8-0.2,5.3-0.1,7.3c-5.5-0.4-10.9-1-16.1-1.7
		C202.7,395.7,202.8,392.9,202.6,389.8z M187.1,376.5h0.2c4.6,0,7.2,4.4,7.8,13.2c-0.2,2.6-0.3,4.9-0.2,6.6
		c-5.2-0.8-10-1.7-14.3-2.6c0-1,0.1-2.7,0-4.5C180.7,384.4,182,376.6,187.1,376.5z M168.1,378.2c0.1,0,0.2,0,0.3,0
		c2.9,0.3,4.2,5.8,4.6,11c-0.1,1.1-0.1,2.1-0.1,2.9c-4.4-1-7.9-1.9-10.2-2.4C163.3,384.7,165.1,378.2,168.1,378.2z M170.8,411.6
		c-0.5,0.5-1.3,1-3,0.8c-1.3-0.2-2.3-0.7-3.2-1.8c-2.3-3-2.7-9-2.5-13.4c2.6,0.7,6.4,1.6,10.9,2.6c0,0.9,0.1,1.9,0.2,3.1
		C173,406.3,172.4,409.9,170.8,411.6z M187.8,419.5c-0.9,0.1-1.6-0.2-2.4-0.9c-2.8-2.7-4.3-9.8-4.8-15.8c0-0.5,0-0.9,0-1.4
		c4.3,0.9,9.1,1.7,14.2,2.5C194.7,409.7,193.2,419.1,187.8,419.5z M211.1,426.7c-1.2,0.2-2,0-2.9-0.7c-3.7-3.1-5.3-13.1-5.7-21
		c5.2,0.7,10.6,1.3,16.2,1.7c-0.1,2-0.1,4.6,0.1,7.4C218.1,419.8,216.2,425.8,211.1,426.7z M235.9,430.7c-2.6,0.5-3.9-0.3-4.8-1.1
		c-2.9-2.6-4.3-9.1-4.8-15.4c0.3-2.6,0.3-5.1,0.3-7c2.9,0.1,5.9,0.2,8.8,0.2c0,0,0,0,0,0c3.7,0,7.2-0.1,10.7-0.3
		c-0.1,2.2-0.1,5,0.2,8C245.6,421.8,243,429.3,235.9,430.7z M269.1,429.7c-0.9,0.8-2.2,1.6-4.8,1.1c-7.2-1.4-9.7-9-10.4-15.8
		c0.3-3,0.3-5.7,0.2-7.9c3.4,0.2,7,0.3,10.7,0.3c2.9,0,5.9-0.1,8.8-0.2c0,2,0,4.5,0.3,7.1C273.4,420.6,272,427,269.1,429.7z
		 M291.9,426c-0.9,0.7-1.7,0.9-2.9,0.7c-5.1-0.9-7-6.9-7.7-12.6c0.2-2.8,0.2-5.4,0.1-7.4c5.6-0.4,11-1,16.2-1.7
		C297.3,412.9,295.6,422.9,291.9,426z M314.7,418.6c-0.7,0.7-1.4,1-2.4,0.9c-5.4-0.4-6.8-9.6-7.1-15.6c5.1-0.8,9.9-1.7,14.2-2.5
		c0,0.4,0,0.9,0,1.4C319,408.9,317.5,416,314.7,418.6z"/>
</g>
<g id="Eyes" class="st0">
	<path id="XMLID_172_" class="st2" d="M230.9,230.4c0-30.5-24.7-55.2-55.2-55.2c-30.5,0-55.2,24.7-55.2,55.2
		c0,30.5,24.7,55.2,55.2,55.2C206.2,285.6,230.9,260.9,230.9,230.4z"/>
	<path id="XMLID_104_" class="st2" d="M324.5,175.2c-30.5,0-55.2,24.7-55.2,55.2c0,30.5,24.7,55.2,55.2,55.2
		c30.5,0,55.2-24.7,55.2-55.2C379.7,199.9,354.9,175.2,324.5,175.2z"/>
	<circle id="XMLID_12_" class="st1" cx="174.4" cy="230.5" r="32.4"/>
	<path id="XMLID_11_" class="st1" d="M358.1,230.5c0,17.9-14.5,32.4-32.4,32.4c-17.9,0-32.4-14.5-32.4-32.4
		c0-17.9,14.5-32.4,32.4-32.4C343.6,198.1,358.1,212.6,358.1,230.5z"/>
	<path id="XMLID_10_" class="st7" d="M344.2,230.5c0,10.2-8.3,18.5-18.5,18.5c-10.2,0-18.5-8.3-18.5-18.5c0-10.2,8.3-18.5,18.5-18.5
		C336,212,344.2,220.3,344.2,230.5z"/>
	<circle id="XMLID_9_" class="st8" cx="174.4" cy="230.5" r="18.5"/>
	<polygon id="XMLID_8_" class="st9" points="330.1,222.9 325.8,215.5 321.5,222.9 325.8,230.4 330.1,222.9 	"/>
	<polygon id="XMLID_7_" class="st9" points="312.8,237.8 321.4,237.8 325.8,230.4 317.3,230.4 312.8,237.8 	"/>
	<polygon id="XMLID_6_" class="st9" points="334.3,230.4 325.8,230.4 330.1,237.8 338.7,237.8 334.3,230.4 	"/>
	<g id="XMLID_202_" class="st3">
		<path id="XMLID_2_" class="st5" d="M174.4,242.5c-0.1,0-0.3,0-0.4,0c-3.2-0.1-6.2-1.5-8.4-3.8c-2.2-2.3-3.3-5.4-3.2-8.6
			c0.1-3.2,1.5-6.2,3.8-8.4c2.3-2.2,5.4-3.3,8.6-3.2c6.6,0.2,11.8,5.8,11.6,12.4c0,0.7-0.1,1.4-0.3,2.1c-0.2,1.1-1.3,1.8-2.4,1.6
			c-1.1-0.2-1.8-1.3-1.6-2.4c0.1-0.5,0.2-0.9,0.2-1.4c0.2-4.4-3.3-8.1-7.7-8.2c-2.1-0.1-4.2,0.7-5.7,2.1c-1.6,1.5-2.5,3.4-2.5,5.5
			c-0.1,2.1,0.7,4.2,2.1,5.7c1.5,1.6,3.4,2.5,5.5,2.5c0.5,0,1.1,0,1.6-0.1c1.1-0.2,2.2,0.6,2.3,1.7c0.2,1.1-0.6,2.2-1.7,2.3
			C175.8,242.4,175.1,242.5,174.4,242.5z"/>
		<path id="XMLID_1_" class="st5" d="M182.4,241.1c-0.5,0-1.1-0.2-1.5-0.6l-5.2-5.6c-0.8-0.8-0.7-2.1,0.1-2.9
			c0.8-0.8,2.1-0.7,2.9,0.1l5.2,5.6c0.8,0.8,0.7,2.1-0.1,2.9C183.4,240.9,182.9,241.1,182.4,241.1z"/>
	</g>
	<path id="XMLID_171_" class="st2" d="M231,209.3c1.4,3.6,2.4,7.4,3.1,11.2l2.9-0.5c-0.7-4-1.8-8-3.2-11.8L231,209.3z"/>
	<path id="XMLID_170_" class="st2" d="M200.9,173.5l-1.2,2.7c3.5,1.6,7,3.5,10.1,5.8l1.7-2.4C208.2,177.2,204.7,175.2,200.9,173.5z"
		/>
	<path id="XMLID_169_" class="st2" d="M224.8,263.4l2.5,1.7c2.3-3.4,4.2-7,5.8-10.8l-2.8-1.2C228.9,256.8,227,260.2,224.8,263.4z"/>
	<path id="XMLID_168_" class="st2" d="M236.7,242.6c0.8-4,1.2-8.1,1.2-12.2h-3c0,3.9-0.4,7.8-1.1,11.6L236.7,242.6z"/>
	<path id="XMLID_167_" class="st2" d="M218.7,189.7c2.7,2.8,5.1,5.9,7.2,9.2l2.5-1.6c-2.2-3.5-4.7-6.7-7.5-9.7L218.7,189.7z"/>
	<path id="XMLID_166_" class="st2" d="M177.1,168.2l-0.1,3c3.9,0.1,7.8,0.6,11.6,1.4l0.6-2.9C185.3,168.8,181.2,168.3,177.1,168.2z"
		/>
	<path id="XMLID_165_" class="st2" d="M114.5,241.7c0.7,4,1.9,8,3.4,11.8l2.8-1.1c-1.4-3.6-2.5-7.4-3.2-11.2L114.5,241.7z"/>
	<path id="XMLID_164_" class="st2" d="M151.4,287.7l1.2-2.8c-3.6-1.5-7-3.4-10.2-5.6l-1.7,2.5C144,284.1,147.6,286.1,151.4,287.7z"
		/>
	<path id="XMLID_163_" class="st2" d="M127.1,196.6l-2.5-1.7c-2.3,3.4-4.3,7-6,10.7l2.7,1.2C122.9,203.3,124.9,199.8,127.1,196.6z"
		/>
	<path id="XMLID_162_" class="st2" d="M134.6,187.8c2.8-2.7,5.9-5.1,9.2-7.2l-1.6-2.5c-3.4,2.2-6.7,4.8-9.6,7.6L134.6,187.8z"/>
	<path id="XMLID_161_" class="st2" d="M164.9,169.2c-4,0.7-8,1.8-11.8,3.3l1.1,2.8c3.6-1.4,7.4-2.5,11.2-3.1L164.9,169.2z"/>
	<path id="XMLID_160_" class="st2" d="M131.2,273.9l2.1-2.1c-2.7-2.8-5.2-5.8-7.3-9.1l-2.5,1.6C125.8,267.7,128.4,271,131.2,273.9z"
		/>
	<path id="XMLID_159_" class="st2" d="M175.2,292.6l0-3c-3.9,0-7.8-0.4-11.6-1.2l-0.6,2.9C167,292.1,171.1,292.6,175.2,292.6z"/>
	<path id="XMLID_158_" class="st2" d="M199.2,288l-1.1-2.8c-3.6,1.5-7.4,2.6-11.2,3.3l0.6,2.9C191.5,290.7,195.4,289.6,199.2,288z"
		/>
	<path id="XMLID_157_" class="st2" d="M113.5,229.5l3,0c0.1-3.9,0.5-7.8,1.3-11.6l-2.9-0.6C114.1,221.3,113.6,225.4,113.5,229.5z"/>
	<path id="XMLID_156_" class="st2" d="M217.4,272.4c-2.8,2.7-5.8,5.2-9,7.4l1.7,2.5c3.4-2.3,6.6-4.9,9.5-7.7L217.4,272.4z"/>
	<path id="XMLID_103_" class="st2" d="M301,288c3.8,1.5,7.7,2.7,11.8,3.5l0.6-2.9c-3.8-0.7-7.6-1.8-11.2-3.3L301,288z"/>
	<path id="XMLID_102_" class="st2" d="M299.2,173.5c-3.7,1.7-7.3,3.7-10.7,6.1l1.7,2.4c3.2-2.2,6.6-4.2,10.1-5.8L299.2,173.5z"/>
	<path id="XMLID_101_" class="st2" d="M335.3,169.2l-0.5,3c3.8,0.7,7.6,1.7,11.2,3.1l1.1-2.8C343.3,171,339.3,169.9,335.3,169.2z"/>
	<path id="XMLID_100_" class="st2" d="M281.5,189.7l-2.2-2.1c-2.8,3-5.3,6.2-7.5,9.7l2.5,1.6C276.4,195.6,278.8,192.5,281.5,189.7z"
		/>
	<path id="XMLID_99_" class="st2" d="M269.8,253.2l-2.8,1.2c1.6,3.8,3.5,7.4,5.8,10.8l2.5-1.7C273.1,260.2,271.3,256.8,269.8,253.2z
		"/>
	<path id="XMLID_98_" class="st2" d="M266.3,208.2c-1.5,3.8-2.5,7.8-3.2,11.8l3,0.5c0.6-3.8,1.7-7.6,3.1-11.3L266.3,208.2z"/>
	<path id="XMLID_97_" class="st2" d="M262.3,230.4c0,4.1,0.4,8.2,1.2,12.2l2.9-0.6c-0.8-3.8-1.1-7.7-1.1-11.6H262.3z"/>
	<path id="XMLID_95_" class="st2" d="M375.5,194.9l-2.5,1.7c2.2,3.2,4.1,6.6,5.7,10.2l2.7-1.2C379.9,201.9,377.9,198.3,375.5,194.9z
		"/>
	<path id="XMLID_94_" class="st2" d="M356.4,180.5c3.3,2.1,6.4,4.5,9.2,7.2l2.1-2.2c-2.9-2.8-6.2-5.4-9.6-7.6L356.4,180.5z"/>
	<path id="XMLID_93_" class="st2" d="M385.3,217.3l-2.9,0.6c0.8,3.8,1.3,7.7,1.3,11.6l3,0C386.6,225.4,386.1,221.3,385.3,217.3z"/>
	<path id="XMLID_92_" class="st2" d="M324.9,292.6c4.1,0,8.2-0.5,12.2-1.3l-0.6-2.9c-3.8,0.8-7.7,1.2-11.6,1.2L324.9,292.6z"/>
	<path id="XMLID_91_" class="st2" d="M368.9,273.9c2.9-2.9,5.4-6.1,7.7-9.6l-2.5-1.6c-2.1,3.3-4.6,6.3-7.3,9.1L368.9,273.9z"/>
	<path id="XMLID_90_" class="st2" d="M280.6,274.6c2.9,2.9,6.1,5.5,9.5,7.7l1.6-2.5c-3.2-2.1-6.3-4.6-9-7.4L280.6,274.6z"/>
	<path id="XMLID_89_" class="st2" d="M348.8,287.7c3.7-1.6,7.4-3.6,10.7-5.9l-1.7-2.5c-3.2,2.2-6.7,4.1-10.2,5.6L348.8,287.7z"/>
	<path id="XMLID_88_" class="st2" d="M385.6,241.7l-2.9-0.5c-0.7,3.8-1.8,7.6-3.2,11.2l2.8,1.1C383.7,249.7,384.9,245.7,385.6,241.7
		z"/>
</g>
</svg>
